<svg id="Layer_2" data-name="Layer 2" xmlns="http://www.w3.org/2000/svg" viewBox="0 0 600 32.02"><defs><style>.cls-1{fill:#ecd8ff;opacity:0.4;}.cls-2{fill:#594640;}.cls-3{fill:#b386e2;}.cls-4{fill:#ffe1bd;}.cls-5{fill:#cba7f9;}.cls-6{fill:#e6b796;}.cls-7{fill:#f5f5f5;}.cls-8{fill:#664e27;}.cls-9{fill:#2b2925;}.cls-10{fill:#3b3226;}.cls-11{fill:#e08672;}.cls-12{fill:#b86e5d;}</style></defs><title>foot</title><path class="cls-1" d="M600,61.71H0V41.47a3822.69,3822.69,0,0,1,600,0Z" transform="translate(0 -29.68)"/><path class="cls-2" d="M298.56,37.14c-4.05,0-6.27,2.54-6.27,5.89V53.46h12.54V43c0-5-3.39-4.88-3.39-4.88S301.18,37.14,298.56,37.14Z" transform="translate(0 -29.68)"/><path class="cls-3" d="M301.35,50.38v-2h-5.58v2c-3.5.11-4.21.68-4.21,3.64h14C305.56,51.06,304.85,50.49,301.35,50.38Z" transform="translate(0 -29.68)"/><path class="cls-4" d="M304.17,54l-.25-5.42s2.9.54,4.23-.91-1.6-.09-3.13-.54c-.56-.17-2-.52-2.41.45S301.9,54,301.9,54Z" transform="translate(0 -29.68)"/><path class="cls-5" d="M304.31,54,304,48.67l-1.92,0c0,1.83-.45,5.38-.45,5.38Z" transform="translate(0 -29.68)"/><path class="cls-4" d="M293.89,45.85s-.94-.24-.94-1.63c0-1.09.71-1.28.71-1.28,2.54,0,7.26-3.29,7.26-3.29s1,2.9,2.5,3.29c0,0,.73.13.73,1.28a1.51,1.51,0,0,1-1,1.63c0,2.09-2.88,4.61-4.63,4.61S293.89,47.94,293.89,45.85Z" transform="translate(0 -29.68)"/><path class="cls-6" d="M298.55,47.22c-.9,0-1.35-.65-.9-.65h1.8C299.9,46.57,299.45,47.22,298.55,47.22Z" transform="translate(0 -29.68)"/><path class="cls-7" d="M299.9,45.31c-.31,0-.27-.4-.27-.4.48-2.47,3.23-1.15,3.23-1.15.22.43-.5,1.5-.69,1.55A7.15,7.15,0,0,1,299.9,45.31Z" transform="translate(0 -29.68)"/><path class="cls-8" d="M301.14,43.33a1,1,0,1,1-1,1A1,1,0,0,1,301.14,43.33Z" transform="translate(0 -29.68)"/><circle class="cls-9" cx="301.14" cy="14.62" r="0.32"/><path class="cls-10" d="M299.63,44.91c.48-3,2.91-1,3.88-1.41C302.54,44.42,300.6,42.44,299.63,44.91Z" transform="translate(0 -29.68)"/><path class="cls-7" d="M297.2,45.31c.31,0,.27-.4.27-.4-.48-2.47-3.22-1.15-3.22-1.15-.22.43.5,1.5.69,1.55A7.1,7.1,0,0,0,297.2,45.31Z" transform="translate(0 -29.68)"/><path class="cls-8" d="M295,44.3a1,1,0,1,0,1-1A1,1,0,0,0,295,44.3Z" transform="translate(0 -29.68)"/><path class="cls-10" d="M297.48,44.91c-.49-3-2.91-1-3.88-1.41C294.57,44.42,296.51,42.44,297.48,44.91Z" transform="translate(0 -29.68)"/><path class="cls-11" d="M298.55,48.3,296.4,48c1.29,1.85,3,1.85,4.31,0Z" transform="translate(0 -29.68)"/><path class="cls-12" d="M299.4,47.89c-.63-.24-.85.15-.85.15s-.21-.39-.85-.15a3.28,3.28,0,0,1-1.3.08c.86.19,1,.55,2.15.55s1.29-.36,2.16-.55A3.34,3.34,0,0,1,299.4,47.89Z" transform="translate(0 -29.68)"/><circle class="cls-9" cx="295.97" cy="14.62" r="0.32"/></svg>