<svg xmlns="http://www.w3.org/2000/svg" xmlns:xlink="http://www.w3.org/1999/xlink" viewBox="0 0 600 102.88"><defs><style>.cls-1{fill:url(#linear-gradient);}.cls-2{fill:#c3abff;stroke:#000;}</style><linearGradient id="linear-gradient" x1="300" x2="300" y2="102.88" gradientUnits="userSpaceOnUse"><stop offset="0.8" stop-color="#ecd8ff"/><stop offset="1" stop-color="#fff" stop-opacity="0"/></linearGradient></defs><title>Layer 1</title><g id="Layer_2" data-name="Layer 2"><g id="Layer_1-2" data-name="Layer 1"><rect class="cls-1" width="600" height="102.88"/><path class="cls-2" d="M306,29.74a5.12,5.12,0,0,0,3.06.68,4.19,4.19,0,0,0,2-.45,4.35,4.35,0,0,0,1.38-1.15,5.11,5.11,0,0,0,1.05-3,2.65,2.65,0,0,0-.81-2,4,4,0,0,0-2.85-.79,4.64,4.64,0,0,0-2.12.45,4.86,4.86,0,0,0-1.5,1.16,4.8,4.8,0,0,0-.89,1.57,5,5,0,0,0-.3,1.67A2.52,2.52,0,0,0,306,29.74Z"/><path class="cls-2" d="M374.53,45a1.39,1.39,0,0,0-1.18-.68,1.78,1.78,0,0,0-1.09.45c-1.47,1.5-2.87,2.84-4.18,4-.56.49-1.14,1-1.74,1.46s-1.18.91-1.74,1.28a11,11,0,0,1-1.57.9,3.06,3.06,0,0,1-1.24.33,1.24,1.24,0,0,1-1.2-.68,3.88,3.88,0,0,1-.35-1.74,9.7,9.7,0,0,1,.24-2c.17-.76.38-1.58.64-2.45s.54-1.75.86-2.65.63-1.77.93-2.6l.83-2.27c.24-.68.42-1.24.54-1.69a1.76,1.76,0,0,0,0-.38,2.12,2.12,0,0,0-.85-1.62,3.28,3.28,0,0,0-3.18-.55c-.39.13-.75.28-1.11.44s-.83.39-1.23.6A9.75,9.75,0,0,0,356.34,34a11.2,11.2,0,0,0-2-.84,8.56,8.56,0,0,0-2.71-.39,13.63,13.63,0,0,0-5.41,1,16.13,16.13,0,0,0-4.33,2.7,19.42,19.42,0,0,0-3.29,3.78,26.4,26.4,0,0,0-2.28,4.27c-.3.71-.55,1.41-.77,2.1-.49.32-1,.67-1.66,1.07-.9.57-1.9,1.18-3,1.81s-2.25,1.22-3.43,1.76a26.18,26.18,0,0,1-3.57,1.33,12,12,0,0,1-3.37.53,3.57,3.57,0,0,1-2.34-.7,2.36,2.36,0,0,1-.86-1.94,6,6,0,0,1,.44-2A15.36,15.36,0,0,1,319,46a26.28,26.28,0,0,1,1.71-2.54,20.61,20.61,0,0,1,1.95-2.23,11.68,11.68,0,0,1,2-1.6,3.54,3.54,0,0,1,1.81-.61c.47,0,.76.14.88.44a2.82,2.82,0,0,1,.18,1.07c0,.37,0,.77,0,1.18s0,.72,0,.93a1.09,1.09,0,0,0,.2.74c.12.14.42.21.89.21a3.15,3.15,0,0,0,2.18-.78,5.88,5.88,0,0,0,1.44-1.93,9.37,9.37,0,0,0,.81-2.48,12.73,12.73,0,0,0,.25-2.41,3.51,3.51,0,0,0-.3-1.51,2.6,2.6,0,0,0-.81-1,3.32,3.32,0,0,0-1.19-.54,5.78,5.78,0,0,0-1.46-.18,11.19,11.19,0,0,0-4.52,1,20,20,0,0,0-4.29,2.61,25.48,25.48,0,0,0-3.81,3.69,31.44,31.44,0,0,0-3.06,4.22A23.64,23.64,0,0,0,312,48l-.32.3q-.93.88-2,1.74a17.68,17.68,0,0,1-2.15,1.53,12.88,12.88,0,0,1-2.16,1.09,5.61,5.61,0,0,1-2,.42,2.67,2.67,0,0,1-1.36-.29,1.4,1.4,0,0,1-.47-1.25,6.57,6.57,0,0,1,.33-1.94,21.06,21.06,0,0,1,.81-2.14c.32-.73.65-1.44,1-2.13s.67-1.33.95-1.91l.6-1.27c.16-.35.33-.71.51-1.07s.37-.76.58-1.18.48-.94.81-1.55a2.29,2.29,0,0,0,.23-.63c0-.21.06-.42.08-.63a2.84,2.84,0,0,0-1-2.2,3.39,3.39,0,0,0-2.31-.86,3.28,3.28,0,0,0-1.58.42,3.79,3.79,0,0,0-1.37,1.41L300,38.3c-.33.66-.64,1.3-.94,1.93s-.49,1.1-.61,1.41q-.5,1.23-1.2,2.58c-.19.38-.37.79-.56,1.18l-1,.55c-1.39.76-2.85,1.54-4.4,2.33s-3.1,1.58-4.66,2.34-3,1.41-4.23,2c-.19,0-.3,0-.32-.1a1.67,1.67,0,0,1,0-.39c0-.21.25-.6.75-1.16s1.14-1.22,1.9-2l2.5-2.49c.9-.9,1.74-1.8,2.53-2.69a31.93,31.93,0,0,0,2.05-2.57A5.77,5.77,0,0,0,292.81,39a6.78,6.78,0,0,0,.14-.93c0-.3,0-.57,0-.83a3.22,3.22,0,0,0-.86-2.55,3.6,3.6,0,0,0-2.44-.76,9.61,9.61,0,0,0-2.23.3,22.76,22.76,0,0,0-2.62.81c-.92.34-1.86.75-2.83,1.21a32.23,32.23,0,0,0-2.83,1.55l-.07,0h0s0,0,0-.07a.71.71,0,0,1,.07-.28c0-.12.1-.25.16-.39s.11-.27.15-.39a.75.75,0,0,0,.07-.28,1.44,1.44,0,0,0-.45-1,3.79,3.79,0,0,0-1.18-.78,6.87,6.87,0,0,0-1.64-.47,10.17,10.17,0,0,0-1.82-.16,6.89,6.89,0,0,0-1.67.19,4.73,4.73,0,0,0-1.39.58,2.87,2.87,0,0,0-.95,1,2.81,2.81,0,0,0-.35,1.45,3.21,3.21,0,0,0,.33,1.53,3.56,3.56,0,0,0,.83,1q-1.51,3.06-2.62,5.4l-.69,1.46c-.24.12-.58.32-1,.59-.63.38-1.4.82-2.32,1.34s-2,1.06-3.12,1.63-2.32,1.11-3.53,1.6a27.56,27.56,0,0,1-3.66,1.22,14.19,14.19,0,0,1-3.46.47,4.42,4.42,0,0,1-2.42-.58,2.27,2.27,0,0,1-1.09-1.6,60,60,0,0,0,8-3.5,28.18,28.18,0,0,0,5.08-3.41A10.74,10.74,0,0,0,263,41.15a7.12,7.12,0,0,0,.77-3.1,5.21,5.21,0,0,0-1.44-3.9,6,6,0,0,0-4.36-1.41,16.5,16.5,0,0,0-5.22.81,19.11,19.11,0,0,0-4.48,2.15,20.14,20.14,0,0,0-3.67,3.07,22.25,22.25,0,0,0-2.76,3.57A17.41,17.41,0,0,0,240.07,46a10.94,10.94,0,0,0-.59,3.32,12,12,0,0,0,.59,3.76,9.76,9.76,0,0,0,1.74,3.17,8.61,8.61,0,0,0,2.78,2.18,8.34,8.34,0,0,0,3.75.81,20.17,20.17,0,0,0,5-.65,35.26,35.26,0,0,0,4.87-1.64,41.35,41.35,0,0,0,4.43-2.16c.71-.4,1.38-.79,2-1.17-.26.55-.53,1.08-.79,1.57a4.65,4.65,0,0,0-.51,1.29,4.89,4.89,0,0,0-.12,1,1.76,1.76,0,0,0,.47,1.37,1.84,1.84,0,0,0,1.28.43,4.47,4.47,0,0,0,1.55-.32,7.34,7.34,0,0,0,1.65-.88,7.7,7.7,0,0,0,1.5-1.37,7,7,0,0,0,1.11-1.83L272,52c.49-1.07,1-2.16,1.53-3.26s1-2.16,1.53-3.17.93-1.84,1.3-2.49a4.3,4.3,0,0,1,1.41-1.46,14.24,14.24,0,0,1,2.07-1.22,16.58,16.58,0,0,1,2.06-.84,5.26,5.26,0,0,1,1.39-.32.29.29,0,0,1,.31.18.87.87,0,0,1,.07.35,3.36,3.36,0,0,1-.49,1.62A19.16,19.16,0,0,1,282,43.34c-.5.7-1.06,1.43-1.67,2.22s-1.19,1.61-1.75,2.48A21.36,21.36,0,0,0,277,50.78a11.35,11.35,0,0,0-.91,3,2,2,0,0,0,0,.42,4,4,0,0,0,1.22,3,5.1,5.1,0,0,0,3.64,1.16,7.47,7.47,0,0,0,2.4-.48,24.94,24.94,0,0,0,3-1.24c1.06-.52,2.15-1.11,3.29-1.76s2.26-1.33,3.38-2l1.43-.9a10.69,10.69,0,0,0-.08,1.27A5.8,5.8,0,0,0,296,57.76a6.48,6.48,0,0,0,4.48,1.46,10.71,10.71,0,0,0,4-.78,21.37,21.37,0,0,0,3.92-2,33.37,33.37,0,0,0,3-2.24,5.83,5.83,0,0,0,.22.71A6.65,6.65,0,0,0,313,57.13a6.92,6.92,0,0,0,2.34,1.52,8.35,8.35,0,0,0,3.18.57,16.7,16.7,0,0,0,4.78-.72,32.14,32.14,0,0,0,4.7-1.81,35.52,35.52,0,0,0,4.25-2.41c.87-.58,1.66-1.13,2.4-1.66a6.5,6.5,0,0,0,.71,2.84,6.85,6.85,0,0,0,1.83,2.17,7.11,7.11,0,0,0,2.3,1.22,7.69,7.69,0,0,0,2.13.37,8.15,8.15,0,0,0,3.53-.83,16.55,16.55,0,0,0,3.34-2.11,23,23,0,0,0,3-2.85c.93-1,1.75-2,2.48-3a6.45,6.45,0,0,0-.35,1.36,10,10,0,0,0-.11,1.46,8.88,8.88,0,0,0,.28,2.19,6,6,0,0,0,.87,1.92,4.63,4.63,0,0,0,1.45,1.37,4.05,4.05,0,0,0,2.11.53,7.59,7.59,0,0,0,2.92-.65,21.93,21.93,0,0,0,3.15-1.67,34.41,34.41,0,0,0,3.13-2.27c1-.83,2-1.66,2.88-2.48s1.71-1.58,2.41-2.28,1.26-1.26,1.69-1.66a2.24,2.24,0,0,0,.66-1.65A2.61,2.61,0,0,0,374.53,45Zm-127.2.62a19.42,19.42,0,0,1,1-2.06,24.59,24.59,0,0,1,1.35-2.16,10.73,10.73,0,0,1,1.72-2,8.4,8.4,0,0,1,2.13-1.39,6,6,0,0,1,2.5-.53h.31a1.33,1.33,0,0,1,.32,0,1.35,1.35,0,0,1,.75.38,1.09,1.09,0,0,1,.34.85,2.74,2.74,0,0,1-.6,1.49A7.36,7.36,0,0,1,255,42.17c-.23.14-.64.41-1.21.8s-1.25.85-2,1.34l-2.48,1.55q-1.32.81-2.55,1.44C246.86,46.85,247.06,46.3,247.33,45.65ZM353.77,43.5a23.86,23.86,0,0,1-1.37,2.22c-.56.82-1.2,1.66-1.9,2.51a27.52,27.52,0,0,1-2.16,2.36,15,15,0,0,1-2.15,1.75,3.41,3.41,0,0,1-1.81.69,2.62,2.62,0,0,1-1.56-.42,2.87,2.87,0,0,1-.9-1.06,4.15,4.15,0,0,1-.4-1.39,12.26,12.26,0,0,1-.09-1.45,8.88,8.88,0,0,1,.7-3.43A11.09,11.09,0,0,1,344,42.2,10,10,0,0,1,346.77,40a6.53,6.53,0,0,1,3.2-.85,5.36,5.36,0,0,1,1.32.2,5.18,5.18,0,0,1,1.42.58,3.83,3.83,0,0,1,1.13.93,1.87,1.87,0,0,1,.46,1.21A3.59,3.59,0,0,1,353.77,43.5Z"/></g></g></svg>